<svg width="93" height="27" fill="none" xmlns="http://www.w3.org/2000/svg"><g clip-path="url(#a)" fill="#2D3440"><path d="M0 10.42v2.08h1.99v-2.08H0ZM9.42 3.66c-1.26 0-2.28.58-2.92 1.4h-.07V0H4.79v12.5h1.64V8.21c0-1.72 1.07-2.95 2.64-2.95 1.49 0 2.35 1.11 2.35 2.6v4.64h1.65V7.57c0-2.38-1.47-3.9-3.65-3.9ZM21.53 3.9h-3.9V.88H16V3.9h-1.55v1.6h1.55v4.84c0 1.39.78 2.15 2.18 2.15h3.36v-1.61H18.5c-.55 0-.86-.32-.86-.86V5.5h3.89V3.9ZM33.25 3.68c-1.3 0-2.31.64-2.86 1.67h-.06a2.9 2.9 0 0 0-2.71-1.67c-1.14 0-2 .6-2.52 1.46h-.07V3.9h-1.58v8.59h1.65V8.09c0-1.61.84-2.8 2.12-2.83 1.21-.03 1.92.83 1.92 2.14v5.1h1.64V7.95c0-1.93 1.14-2.69 2.13-2.69 1.2 0 1.9.83 1.9 2.14v5.1h1.64V7.22c0-2.08-1.17-3.54-3.2-3.54ZM38.68 10.28c0 1.4.8 2.22 2.26 2.22h1.63v-1.6h-1.39c-.55 0-.86-.31-.86-.85V0h-1.64v10.28ZM23.38 15.94h-.07a3.75 3.75 0 0 0-3.07-1.49c-2.54-.03-4.36 1.85-4.36 4.5 0 2.68 1.85 4.56 4.34 4.53a3.66 3.66 0 0 0 3.09-1.57h.07v1.33H25v-8.55h-1.62v1.25Zm-2.91 5.95a2.83 2.83 0 0 1-2.95-2.93 2.83 2.83 0 0 1 2.95-2.94c1.75 0 2.89 1.31 2.89 2.94 0 1.6-1.14 2.93-2.9 2.93ZM35.75 17.8a4.28 4.28 0 0 0-4.36-3.35 4.37 4.37 0 0 0-4.54 4.5 4.39 4.39 0 0 0 4.54 4.53 4.3 4.3 0 0 0 4.36-3.4h-1.71a2.68 2.68 0 0 1-2.63 1.83 2.84 2.84 0 0 1-2.91-2.95 2.82 2.82 0 0 1 2.9-2.94 2.7 2.7 0 0 1 2.64 1.78h1.71ZM44.55 15.94h-.07a3.75 3.75 0 0 0-3.07-1.49c-2.54-.03-4.36 1.85-4.36 4.5 0 2.68 1.85 4.56 4.34 4.53a3.66 3.66 0 0 0 3.09-1.57h.07v1.33h1.62v-8.55h-1.62v1.25Zm-2.91 5.95a2.83 2.83 0 0 1-2.95-2.93 2.83 2.83 0 0 1 2.95-2.94c1.75 0 2.89 1.31 2.89 2.94 0 1.6-1.14 2.93-2.9 2.93ZM55.52 16.02h-.07a3.73 3.73 0 0 0-3.08-1.57c-2.5-.03-4.35 1.85-4.35 4.52 0 2.66 1.82 4.54 4.37 4.5A3.74 3.74 0 0 0 55.43 22h.09v1.25h1.63V10.8h-1.63v5.21Zm-2.9 5.89a2.83 2.83 0 0 1-2.95-2.94 2.83 2.83 0 0 1 2.94-2.93c1.75 0 2.9 1.33 2.9 2.93a2.82 2.82 0 0 1-2.9 2.94ZM63.34 14.45a4.36 4.36 0 0 0-4.43 4.52c0 2.44 1.7 4.5 4.47 4.5 2 0 3.62-1.08 4.19-2.9h-1.71c-.39.82-1.3 1.34-2.41 1.34-1.56 0-2.67-1.04-2.79-2.37h7.08c.23-2.84-1.56-5.09-4.4-5.09Zm-.03 1.57a2.6 2.6 0 0 1 2.65 2.07H60.7a2.57 2.57 0 0 1 2.61-2.07ZM79.41 14.47c-1.31 0-2.32.64-2.87 1.66h-.05c-.5-1-1.44-1.66-2.72-1.66-1.14 0-2.01.6-2.53 1.45h-.07v-1.23H69.6v8.55h1.65v-4.39c0-1.6.85-2.78 2.13-2.81 1.21-.03 1.92.83 1.92 2.12v5.08h1.65v-4.52c0-1.92 1.14-2.68 2.13-2.68 1.2 0 1.9.83 1.9 2.12v5.08h1.65v-5.25c0-2.07-1.18-3.52-3.2-3.52ZM88.5 21.87l-2.94-7.18h-1.82l3.92 9.36-.02.03c-.28.71-.59.97-1.35.97h-2.03v1.64h2.03c1.49 0 2.28-.67 2.84-2.12l3.77-9.88h-1.68l-2.72 7.18Z"/></g><defs><clipPath id="a"><path fill="#fff" d="M0 0h93v26.71H0z"/></clipPath></defs></svg>