<svg width="359" height="146" fill="none" xmlns="http://www.w3.org/2000/svg"><path d="M138.33 98.44c-1.72-.2-3.46.1-5.01.86 0 0-7 5.89-41.63-.89-25.45-4.99-38.68-4.47-38.68-4.47s4.27-29.3 3.1-37.5a2.35 2.35 0 0 0-2.45-2.13c-2.54 0-4.08.98-4.08 2.34.22 5.54.02 11.09-.59 16.6a14.05 14.05 0 0 1-14.4 9.18c-11.08-.77-13.4-8.79-14.39-14.25-.98-5.46-1.54-20.71 1.38-26.95 0 0 16.7.59 27.2-8.41s9.85-16.78 4.88-20.1c-4.97-3.34-16.61-2.75-25.55 5.45a45.41 45.41 0 0 0-11.85 16.4S3.12 31.78 6.13 17.99C9.33 3.6 28.9 5.28 28.9 5.28c4.09.8 4.27 1.17 5.63-.18C35.88 3.74 36.86.22 30.44 0 24.03-.2 4.78 2.99 1.1 15.83-2.85 29.49 4.43 39.26 14.2 40.79c0 0-5.34 23.67 1.26 35.38A20.82 20.82 0 0 0 35.53 87.7c3.85 0 10.66-2.15 12.6-5.27 0 0-.91 8.4-1.68 11.44 0 0-16.2-.21-21.26 2.34-8.6 4.57-6.8 15.28-3.5 19.08 2.8 3.23 11.23 4.99 17.32 2.1a23.23 23.23 0 0 0 12.95-18.04c9.85-.5 19.72.57 29.23 3.19 14.4 4.31 34.44 8.34 40.46 8.34 6.02 0 18.67-1.73 19.44-6.77.42-3.33-.82-5.06-2.76-5.67ZM37 20.12s7.65-5.86 11.32-2.2a5.05 5.05 0 0 1 .2 6.6c-1.53 2.02-5.6 8.4-24.87 11.56 0 0 6.07-10.69 13.35-15.96Zm.63 91.18s-10.57 5.8-11.67-2.06a7.41 7.41 0 0 1 3.83-8.46c1.84-.91 4.36-2.06 15.35-1.66a14.86 14.86 0 0 1-7.5 12.18Z" fill="#2D3440"/><path d="M171.68 55.62v16.15a13.21 13.21 0 0 1-2.01 5.93 13.07 13.07 0 0 1-2.75 3.44c-1.24 1.08-2.06-1.33-2.52-2.34-3.25-6.82-1.68-15.96-.42-23.1.58-3.43-6.33-2.54-6.86.5a69.23 69.23 0 0 0-1.29 18.54 4.34 4.34 0 0 0-3.12 1.72c-1.2 2.55-4.67 11.03-8.94 7.64-3.08-2.35-3.4-8.77-3.73-12.36-.37-4.97.28-9.96 1.91-14.67-.14.4 2.66-6.63 3.9-4a8.54 8.54 0 0 1-1.43 7.33c-3.66 2.77 2.03 3.92 4.25 2.23 4.2-3.17 7-13.38-.16-14.6-8.1-1.36-12.7 6.84-14.4 13.36-.9 3.74-1.3 7.59-1.17 11.43-1.12 1.97-4.9 8.3-7.11 9.38-2.61 1.36-2.57-.54-2.47-1.76.09-1.22 1.25-12.07 1.88-19.38.56-2.9.15-5.9-1.16-8.56-1-2.03-9.33-6.6-16.66 1.97a27.95 27.95 0 0 0-7.19 16.4c-.49 1-1.02 2.05-1.65 3.2-3.5 6.44-7.91 9.16-9.48 4.68a35.86 35.86 0 0 1-1.75-14.5 90.43 90.43 0 0 0 11.8-27.54c3.5-15.6 2.85-23.37.96-24.68-1.88-1.31-9.91-4.54-14.74 14.65a125.6 125.6 0 0 0-3.71 41.9 101.8 101.8 0 0 1-2.87 5.7c-3.5 6.44-7.89 9.16-9.47 4.68a35.86 35.86 0 0 1-1.66-14.5 90.43 90.43 0 0 0 11.8-27.54c3.62-15.82 2.9-23.58 1-24.89-1.88-1.31-9.9-4.54-14.71 14.65-4.81 19.2-5.77 40.12-1.17 54.18 0 0 2.52 7.92 7.23 7.34 3.9-.5 8.54-4.34 11.27-11.51.31 1.4.7 2.8 1.15 4.17 0 0 2.52 7.92 7.23 7.34 3.2-.4 7-3.1 9.66-8.02 1.66 4.29 5.22 7.83 9.82 7.03 6.23-1.12 7.52-4.52 7.52-4.52s-.12 5.58 3.87 5.58c3.54 0 6.37-2.09 9.17-7.4l1.82-3.48c.81 5.04 2.9 9.52 7 11.32 7 3.05 13.11-2.74 16.7-8.46a10.11 10.11 0 0 0 5.74 6.14 8.71 8.71 0 0 0 8.82-2.18v8.25a5.98 5.98 0 0 0-3.61.99 27.44 27.44 0 0 0-9.78 24.65 7.6 7.6 0 0 0 3.86 6.02 7.5 7.5 0 0 0 7.13.1c7.23-3.17 8.33-14.06 8.94-20.72 1.47-16 .32-32.67.32-48.72 0-2.96-6.76-1.57-6.76.84ZM70.58 29.37c1.6-6.2 3.1-8.7 4.66-8.7 1.57 0 2.17 1.67 1.08 7.04a137.85 137.85 0 0 1-9.55 29.88s2.2-21.98 3.8-28.22Zm19.64 0c1.61-6.2 3.1-8.7 4.55-8.7 1.45 0 2.2 1.67 1.1 7.04s-4.67 20.2-9.54 29.88c0 0 2.33-21.98 3.9-28.22Zm30 29.23c-.18 1.36-1.06 10.05-2.33 14.74-1.25 4.69-2.12 6.35-5.9 7.97-3.78 1.61-5.7-3.33-5.7-3.33-2.68-7.5.92-14.06 3.9-18.56 3-4.5 6-4.9 7.73-4.69a3.16 3.16 0 0 1 2.37 2.62c.06.42.04.84-.06 1.25Zm51.27 42.18a42.57 42.57 0 0 1-3.69 18.3c-1.63.33-2.33-.28-2.89-2.9-.38-2.53-.38-5.1 0-7.62a21.12 21.12 0 0 1 6.49-12.07c.11 1.48.11 2.9.09 4.3ZM215.35 48.99a25.12 25.12 0 0 1-13.32-14.06c-2.99-8.95 6.81-15.56 14.63-15.16 7.82.4 12 8.48 11.67 15.72-.14 2.55-1.75 8.32-4.9 5.32a14.92 14.92 0 0 1-3.64-8.5c-.47-2.84-7.23-1.16-6.77 1.82 1.35 8.58 10.55 18.02 18.43 9.05a17.24 17.24 0 0 0-.06-21.56 17.16 17.16 0 0 0-6.03-4.76 23.8 23.8 0 0 0-29.23 10.15c-6.37 11.36 6.41 22.47 15.47 26.53 14.53 7.8 15.07 32.92-4.25 33.09a19.4 19.4 0 0 1-17.94-13.15c-1.33-3.94-.65-17.7 4.66-18.75 4.23-.82 3.09-4.69-1.04-3.96-8.66 1.69-11.86 12.91-11.02 20.76 1.36 12.52 13.02 19.53 24.8 19.43a22.26 22.26 0 0 0 14.42-4.77c4.1-3.23 6.96-7.8 8.05-12.92a22 22 0 0 0-2.6-14.67 21.84 21.84 0 0 0-11.33-9.61Z" fill="#2D3440"/><path d="M258.7 86.23c-6.64-3.66-2.84-17.74-1.84-23.16.66-3.49 3.62-8.88-1.14-10.07-5.58-1.36-12.2 3.96-16.99 9.04 0-5.86.43-11.72 1.29-17.53a36.44 36.44 0 0 0 16.75-17.32c3.03-6.09 4.53-18.74-5.74-15.04-9.33 3.28-12.53 14.06-15.45 22.7a70.56 70.56 0 0 0-2.54 10.25c-.93.4-1.88.74-2.85 1.03-3.87 1.22-3.36 3.3.56 2.09l1.9-.61c-1.87 13.14-.61 26.92.58 39.84 0 1.26 7 0 6.74-1.83-.51-5.77-.96-11.53-1.14-17.25a3.23 3.23 0 0 0 1.47-.91c2.14-2.71 4.55-5.2 7.18-7.43.7-.64 1.43-1.22 2.15-1.78l1.07-.8c1.57-1.24 1.87-1.27.89 0a64.43 64.43 0 0 1-1.45 6.63c-1.28 7.03-4.97 20.84 3.13 25.26 1.75.9 8.05-1.73 5.44-3.11Zm-15.14-56.5c.73-2.09 1.68-4.15 2.57-6.17 1.1-2.53 4.04-11.18 6.16-7.03 1.7 3.3-.98 8.72-2.17 11.88a27.85 27.85 0 0 1-9.33 12.42 87.1 87.1 0 0 1 2.77-11.1Z" fill="#2D3440"/><path d="M283.79 69.8c0-7.71-.86-17.6-10.03-18.42-10.06-.91-14 9.65-14.14 17.55a1.38 1.38 0 0 0 .81 1.34c0 7.38 1.78 17.01 10.53 16.85 9.75-.14 12.83-8.7 12.83-17.32Zm-11.67 12.84c-5.69-2.34-5.18-12.2-4.8-16.96a1.27 1.27 0 0 0-.56-1.25c.7-4.68 2.52-11.71 6.67-8.22 3.31 2.86 3.38 9.72 3.55 13.68.14 2.77-.21 14.49-4.83 12.75h-.03ZM357.29 112.1c-2.62-6.75-8.36-9.37-14.68-9.66a26.38 26.38 0 0 0-2.64-4.87c-9.12-13.57-30.77-11.72-45.45-4.69 0-2.13-.2-4.26-.3-6.4a16.99 16.99 0 0 0 15.19-7.03c3.9-5.6 3.33-15.53 1.8-21.81-1.45-5.9-7.2-4.85-11.5-2.89a17.17 17.17 0 0 0-4.35 2.96c0-1.57.26-3.17.38-4.69.25-3.6-6.63-2.7-6.86.5-1.08 14.5-.7 28.96-1.03 43.44a34.56 34.56 0 0 0-12.53 28.33c0 5.32 4.5 9.38 9.33 5.58 6.75-5.2 8.8-15.54 9.73-23.43.38-3.53.5-7.08.38-10.62a32.57 32.57 0 0 1 35.46-.23c2.28 1.61 4.1 3.8 5.3 6.32a42.53 42.53 0 0 0-10.78 3.47c-4 1.92-9.92 6.47-9.64 11.56a7.06 7.06 0 0 0 5.34 7.03c.22.1.44.18.68.2 14.33 2.35 24.99-6.16 22.94-18.13 7 3.82 9.59 12.68 7.11 20.3-5.57 17.1-27.04 20.92-39.55 9.48-1.35-1.21-7.44 1.36-6.37 2.35 18.06 16.57 63.05 1.24 52.04-27.07Zm-69.86-4.15c-.2 4.14-1.1 8.21-2.66 12.05a50.94 50.94 0 0 1-1.9 3.75s-.6.14-.71-1.69c-.01-6.56 1.88-13 5.46-18.49-.05 1.45-.1 2.93-.2 4.38Zm7.3-41.85c.14-.12.25-.25.35-.4a32.81 32.81 0 0 1 4.44-5.88c1.22-1.4 2.64-2.6 4.22-3.57.75.38 1.51 2.35 1.8 5 .72 6.51 1.02 23.67-9.2 22.05-.8-.04-1.6.1-2.33.4-.02-5.96.3-11.77.72-17.6Zm30.52 55.63h-.14c-3.92-.94-3.5-4.69-2.99-7.22 1.15-5.93 8.33-9.11 14.26-9.37 3.01 8.44.7 18.54-11.13 16.6Z" fill="#2D3440"/></svg>